<?xml version="1.0" encoding="utf-8"?>
<!-- Generator: Adobe Illustrator 25.2.0, SVG Export Plug-In . SVG Version: 6.00 Build 0)  -->
<svg version="1.1" id="Capa_1" xmlns="http://www.w3.org/2000/svg" xmlns:xlink="http://www.w3.org/1999/xlink" x="0px" y="0px"
	 viewBox="0 0 512 512" style="enable-background:new 0 0 512 512;" xml:space="preserve">
<style type="text/css">
	.st0{fill:#6689FF;}
</style>
<g>
	<path class="st0" d="M0,349c0,12.2,13.8,19.3,23.7,12.2l82.5-58.8c6.9-4.9,15.1-7.5,23.6-7.5h181.4c31.9,0,57.9-26,57.9-57.9V46.6
		c0-8.3-6.7-15-15-15H57.9C26,31.6,0,57.6,0,89.5L0,349z M30,89.5c0-15.4,12.5-27.9,27.9-27.9H339V237c0,15.4-12.5,27.9-27.9,27.9
		H129.7c-14.8,0-29,4.5-41,13.1L30,319.9L30,89.5z"/>
	<path class="st0" d="M512,205.9c0-31.9-26-57.9-57.9-57.9H414c-8.3,0-15,6.7-15,15s6.7,15,15,15h40.1c15.4,0,27.9,12.5,27.9,27.9
		v230.4l-58.8-41.9c-12-8.6-26.2-13.1-41-13.1H200.9c-15.4,0-27.9-12.5-27.9-27.9v-13.4c0-8.3-6.7-15-15-15s-15,6.7-15,15v13.4
		c0,31.9,26,57.9,57.9,57.9h181.4c8.5,0,16.6,2.6,23.6,7.5l82.5,58.8c9.9,7,23.7,0,23.7-12.2L512,205.9L512,205.9z"/>
	<path class="st0" d="M107.9,143.3h173.3c8.3,0,15-6.7,15-15s-6.7-15-15-15H107.9c-8.3,0-15,6.7-15,15S99.6,143.3,107.9,143.3
		L107.9,143.3z"/>
	<path class="st0" d="M107.9,213.3h173.3c8.3,0,15-6.7,15-15s-6.7-15-15-15H107.9c-8.3,0-15,6.7-15,15S99.6,213.3,107.9,213.3
		L107.9,213.3z"/>
</g>
</svg>
