<svg height="512pt" viewBox="0 0 512 512" width="512pt" xmlns="http://www.w3.org/2000/svg"><path d="m512 0v512h-512v-362l256-26.101562 37.5-3.898438 142.5-120zm0 0" fill="#deecf1"/><path d="m512 0v512h-256v-388.101562l37.5-3.898438 142.5-120zm0 0" fill="#c5d3dd"/><path d="m436 0-112.5 150h-323.5v-150zm0 0" fill="#537983"/><path d="m323.5 150h-67.5v-150h180zm0 0" fill="#3e5959"/><g fill="#25d9f8"><path d="m121 60h30v30h-30zm0 0"/><path d="m181 60h30v30h-30zm0 0"/><path d="m61 60h30v30h-30zm0 0"/><path d="m61 180v271h390v-271zm0 0"/></g><path d="m256 180h195v271h-195zm0 0" fill="#00c0f1"/><path d="m326.605469 386.605469-21.210938-21.210938 49.394531-49.394531-49.394531-49.394531 21.210938-21.210938 70.605469 70.605469zm0 0" fill="#c5d3dd"/><path d="m185.394531 386.605469-70.605469-70.605469 70.605469-70.605469 21.210938 21.210938-49.394531 49.394531 49.394531 49.394531zm0 0" fill="#deecf1"/><path d="m292.597656 261.398438-36.597656 97.5-8.402344 22.5-28.195312-10.796876 36.597656-97.5 8.402344-22.5zm0 0" fill="#deecf1"/><path d="m292.597656 261.398438-36.597656 97.5v-85.796876l8.402344-22.5zm0 0" fill="#c5d3dd"/></svg>