<svg id="Capa_1" enable-background="new 0 0 512 512" height="512" viewBox="0 0 512 512" width="512" xmlns="http://www.w3.org/2000/svg"><g><path d="m112.462 307.2h287.077v34.133h-287.077z" fill="#eaa96a"/><path d="m368.839 307.2h30.699v34.133h-30.699z" fill="#e5935d"/><g><path d="m-14.062 315.733h232.924v34.133h-232.924z" fill="#eaa96a" transform="matrix(0 1 -1 0 435.2 230.4)"/><path d="m85.333 216.338v29.223h10.439v203.701h23.695v-232.924z" fill="#e5935d"/></g><g><path d="m293.138 315.733h232.924v34.133h-232.924z" fill="#eaa96a" transform="matrix(0 1 -1 0 742.4 -76.8)"/><path d="m392.533 216.338v29.223h10.44v203.701h23.694v-232.924z" fill="#e5935d"/></g><path d="m68.267 484.185v-32.452c0-4.418 3.582-8 8-8h52.267c4.418 0 8 3.582 8 8v32.452z" fill="#e2dfe2"/><path d="m463.891 221.867h-173.758-68.266-173.757l38.15-34.134h135.607l17.066-17.066v-127.891l34.134-.001v127.892l17.066 17.066h135.623z" fill="#eaa96a"/><g><g><path d="m452.559 426.667v3.091h-120.05v-3.091c-4.552 0-8.241-3.69-8.241-8.241v-34.717c0-4.552 3.69-8.241 8.241-8.241h120.05c4.552 0 8.241 3.69 8.241 8.241v34.717c0 4.551-3.69 8.241-8.241 8.241z" fill="#f4f2f4"/><path d="m452.559 375.467h-23.694c4.551 0 8.241 3.69 8.241 8.241v34.717c0 4.552-3.69 8.241-8.241 8.241v3.091h23.694v-3.091c4.552 0 8.241-3.69 8.241-8.241v-34.717c0-4.552-3.69-8.241-8.241-8.241z" fill="#e2dfe2"/><g fill="#eaa96a"><path d="m350.673 375.467v51.2c0 1.1.233 2.144.647 3.091h14.159c.414-.947.647-1.991.647-3.091v-51.2z"/><path d="m418.94 375.467v51.2c0 1.1.233 2.144.647 3.091h14.158c.414-.947.647-1.991.647-3.091v-51.2z"/></g></g><g><path d="m469.625 477.867v3.09h-154.184v-3.09c-4.552 0-8.241-3.69-8.241-8.242v-34.717c0-4.552 3.69-8.241 8.241-8.241h154.184c4.552 0 8.241 3.69 8.241 8.241v34.717c.001 4.552-3.689 8.242-8.241 8.242z" fill="#e2dfe2"/><path d="m469.625 426.667h-23.694c4.552 0 8.241 3.69 8.241 8.241v34.717c0 4.552-3.69 8.242-8.241 8.242v3.09h23.694v-3.09c4.552 0 8.241-3.69 8.241-8.242v-34.717c.001-4.552-3.689-8.241-8.241-8.241z" fill="#d3ced5"/><g fill="#eaa96a"><path d="m333.607 426.667v51.2c0 1.1.233 2.144.647 3.09h14.158c.414-.947.647-1.991.647-3.09v-51.2z"/><path d="m436.007 426.667v51.2c0 1.1.233 2.144.647 3.09h14.158c.414-.947.647-1.991.647-3.09v-51.2z"/></g></g></g><path d="m282.133 238.933h-52.267c-4.418 0-8-3.582-8-8v-52.267c0-4.418 3.582-8 8-8h52.267c4.418 0 8 3.582 8 8v52.267c0 4.419-3.581 8-8 8z" fill="#e2dfe2"/><g><path d="m258.134 212.526h-4.268c-4.268 0-7.726-3.459-7.726-7.726s3.459-7.726 7.726-7.726h4.268c4.268 0 7.726 3.459 7.726 7.726s-3.459 7.726-7.726 7.726z" fill="#4c5e71"/></g><g><g><path d="m469.634 227.502-208.045-180.249c-3.207-2.78-7.97-2.78-11.177 0l-225.112 195.055c-3.561 3.087-8.951 2.702-12.037-.86l-11.178-12.897c-3.087-3.561-2.702-8.951.86-12.037l247.466-214.429c3.207-2.78 7.97-2.78 11.177 0l230.4 199.623c3.562 3.087 3.946 8.476.86 12.037l-11.178 12.897c-3.086 3.561-8.475 3.946-12.036.86z" fill="#4c5e71"/></g></g><path d="m491.989 201.708-230.4-199.623c-3.207-2.78-7.97-2.78-11.177 0l-6.258 5.423 224.141 194.201c3.561 3.087 3.946 8.476.86 12.037l-6.604 7.62 7.083 6.137c3.561 3.087 8.951 2.702 12.037-.86l11.178-12.897c3.086-3.562 2.701-8.952-.86-12.038z" fill="#3c4958"/><path d="m281.892 170.667h-23.694c4.551 0 8.241 3.69 8.241 8.242v51.784c0 4.552-3.69 8.241-8.241 8.241h23.694c4.552 0 8.241-3.69 8.241-8.241v-51.784c0-4.553-3.689-8.242-8.241-8.242z" fill="#d3ced5"/><path d="m128.292 443.733h-23.694c4.552 0 8.241 3.69 8.241 8.241v32.21h23.694v-32.21c0-4.551-3.689-8.241-8.241-8.241z" fill="#d3ced5"/><path d="m504 512h-496c-4.418 0-8-3.582-8-8v-18.133c0-4.418 3.582-8 8-8h496c4.418 0 8 3.582 8 8v18.133c0 4.418-3.582 8-8 8z" fill="#f4f2f4"/><path d="m503.759 477.867h-23.694c4.552 0 8.241 3.69 8.241 8.241v17.65c0 4.552-3.69 8.242-8.241 8.242h23.694c4.552 0 8.241-3.69 8.241-8.242v-17.65c0-4.552-3.69-8.241-8.241-8.241z" fill="#e2dfe2"/></g></svg>