<?xml version="1.0" encoding="iso-8859-1"?>
<!-- Generator: Adobe Illustrator 19.0.0, SVG Export Plug-In . SVG Version: 6.00 Build 0)  -->
<svg version="1.1" id="Capa_1" xmlns="http://www.w3.org/2000/svg" xmlns:xlink="http://www.w3.org/1999/xlink" x="0px" y="0px"
	 viewBox="0 0 464 464" style="enable-background:new 0 0 464 464;" xml:space="preserve">
<path style="fill:#2E5166;" d="M347.12,288c-20.72,42.64-64.48,72-115.12,72s-94.4-29.36-115.12-72H347.12z"/>
<path style="fill:#3F708D;" d="M116.88,176c20.72-42.64,64.48-72,115.12-72s94.4,29.36,115.12,72H116.88z"/>
<g>
	<polygon style="fill:#FFBE00;" points="232,0 245.709,27.778 276.365,32.233 254.182,53.855 259.419,84.386 232,69.971 
		204.581,84.386 209.818,53.855 187.635,32.233 218.291,27.778 	"/>
	<polygon style="fill:#FFBE00;" points="67.951,67.951 97.287,77.899 122.114,59.373 121.718,90.347 147.009,108.233 
		117.428,117.428 108.233,147.009 90.347,121.718 59.373,122.114 77.899,97.287 	"/>
	<polygon style="fill:#FFBE00;" points="67.951,396.049 77.899,366.713 59.373,341.886 90.347,342.282 108.233,316.991 
		117.428,346.572 147.009,355.767 121.718,373.653 122.114,404.627 97.287,386.101 	"/>
	<polygon style="fill:#FFBE00;" points="232,464 218.291,436.222 187.635,431.767 209.818,410.145 204.581,379.614 232,394.029 
		259.419,379.614 254.182,410.145 276.365,431.767 245.709,436.222 	"/>
	<polygon style="fill:#FFBE00;" points="396.049,396.049 366.713,386.101 341.886,404.627 342.282,373.653 316.991,355.767 
		346.572,346.572 355.767,316.991 373.653,342.282 404.627,341.886 386.101,366.713 	"/>
	<polygon style="fill:#FFBE00;" points="396.049,67.951 386.101,97.287 404.627,122.114 373.653,121.718 355.767,147.009 
		346.572,117.428 316.991,108.233 342.282,90.347 341.886,59.373 366.713,77.899 	"/>
</g>
<g>
	<polygon style="fill:#2E5166;" points="80,288 80,320 48,288 	"/>
	<polygon style="fill:#2E5166;" points="416,288 384,320 384,288 	"/>
</g>
<path style="fill:#E15D2D;" d="M174.88,288h114.24c-14.56,14.8-34.8,24-57.12,24S189.44,302.8,174.88,288z"/>
<g>
	<path style="fill:#F88756;" d="M289.12,176H174.88c14.56-14.8,34.8-24,57.12-24S274.56,161.2,289.12,176z"/>
	<rect x="48" y="256" style="fill:#F88756;" width="368" height="32"/>
</g>
<rect x="48" y="176" style="fill:#3F708D;" width="368" height="32"/>
<rect x="48" y="208" style="fill:#FFBE00;" width="368" height="48"/>
<polygon style="fill:#2E5166;" points="464,208 416,208 416,240 454.857,240 "/>
<polygon style="fill:#E15D2D;" points="416,288 384,320 464,320 454.857,288 "/>
<g>
	<polygon style="fill:#E0A700;" points="448,264 454.857,240 416,240 416,288 454.857,288 	"/>
	<polygon style="fill:#E0A700;" points="48,240 9.143,240 16,264 9.143,288 48,288 	"/>
</g>
<polygon style="fill:#2E5166;" points="48,208 0,208 9.143,240 48,240 "/>
<polygon style="fill:#E15D2D;" points="80,320 48,288 9.143,288 0,320 "/>
<g>
</g>
<g>
</g>
<g>
</g>
<g>
</g>
<g>
</g>
<g>
</g>
<g>
</g>
<g>
</g>
<g>
</g>
<g>
</g>
<g>
</g>
<g>
</g>
<g>
</g>
<g>
</g>
<g>
</g>
</svg>
