<svg height="512" viewBox="0 0 512 512" width="512" xmlns="http://www.w3.org/2000/svg" xmlns:xlink="http://www.w3.org/1999/xlink"><linearGradient id="New_Gradient_Swatch_13" gradientUnits="userSpaceOnUse" x1="21.189" x2="125.043" y1="331.927" y2="228.073"><stop offset="0" stop-color="#d46669"/><stop offset="1" stop-color="#dd888a"/></linearGradient><linearGradient id="New_Gradient_Swatch_3" gradientUnits="userSpaceOnUse" x1="31.994" x2="145.923" y1="336.965" y2="223.035"><stop offset=".011" stop-color="#606082"/><stop offset="1" stop-color="#83839e"/></linearGradient><linearGradient id="New_Gradient_Swatch_13-2" x1="386.957" x2="490.811" xlink:href="#New_Gradient_Swatch_13" y1="331.927" y2="228.073"/><linearGradient id="New_Gradient_Swatch_3-2" x1="366.077" x2="480.006" xlink:href="#New_Gradient_Swatch_3" y1="336.965" y2="223.035"/><linearGradient id="New_Gradient_Swatch_3-3" x1="230.556" x2="297.444" xlink:href="#New_Gradient_Swatch_3" y1="505.444" y2="438.556"/><linearGradient id="New_Gradient_Swatch_5" gradientUnits="userSpaceOnUse" x1="183.514" x2="328.486" y1="336.485" y2="191.514"><stop offset=".011" stop-color="#f8c73f"/><stop offset="1" stop-color="#fada7f"/></linearGradient><g id="_14-premium_support" data-name="14-premium support"><g id="gradient"><path d="m440 212a12 12 0 0 1 -12-12v-64a108.122 108.122 0 0 0 -108-108h-128a108.122 108.122 0 0 0 -108 108v64a12 12 0 0 1 -24 0v-64c0-72.785 59.215-132 132-132h128c72.785 0 132 59.215 132 132v64a12 12 0 0 1 -12 12z" fill="#b8b8c7"/><path d="m272 484h-136a76.086 76.086 0 0 1 -76-76v-48a12 12 0 0 1 24 0v48a52.059 52.059 0 0 0 52 52h136a12 12 0 0 1 0 24z" fill="#b8b8c7"/><path d="m88 196a84 84 0 0 0 0 168 12 12 0 0 0 12-12v-144a12 12 0 0 0 -12-12z" fill="url(#New_Gradient_Swatch_13)"/><path d="m96 188h-24a12 12 0 0 0 -12 12v160a12 12 0 0 0 12 12h24a36.04 36.04 0 0 0 36-36v-112a36.04 36.04 0 0 0 -36-36z" fill="url(#New_Gradient_Swatch_3)"/><path d="m424 196a12 12 0 0 0 -12 12v144a12 12 0 0 0 12 12 84 84 0 0 0 0-168z" fill="url(#New_Gradient_Swatch_13-2)"/><path d="m440 188h-24a36.04 36.04 0 0 0 -36 36v112a36.04 36.04 0 0 0 36 36h24a12 12 0 0 0 12-12v-160a12 12 0 0 0 -12-12z" fill="url(#New_Gradient_Swatch_3-2)"/><path d="m280 436h-32a36 36 0 0 0 0 72h32a36 36 0 0 0 0-72z" fill="url(#New_Gradient_Swatch_3-3)"/><path d="m350.563 213.954a12 12 0 0 0 -13.125 0l-38.633 25.23-32.558-53.428a12 12 0 0 0 -20.494 0l-32.553 53.427-38.633-25.23a12 12 0 0 0 -18.4 12.02l16 96a12 12 0 0 0 11.833 10.027h144a12 12 0 0 0 11.837-10.027l16-96a12 12 0 0 0 -5.274-12.019z" fill="url(#New_Gradient_Swatch_5)"/><g fill="#f7c12a"><circle cx="256" cy="164" r="12"/><circle cx="352" cy="192" r="12"/><circle cx="160" cy="192" r="12"/></g></g></g></svg>