<?xml version="1.0" encoding="utf-8"?>
<!-- Generator: Adobe Illustrator 25.2.0, SVG Export Plug-In . SVG Version: 6.00 Build 0)  -->
<svg version="1.1" id="Layer_1" xmlns="http://www.w3.org/2000/svg" xmlns:xlink="http://www.w3.org/1999/xlink" x="0px" y="0px"
	 viewBox="0 0 512 512" style="enable-background:new 0 0 512 512;" xml:space="preserve">
<style type="text/css">
	.st0{fill:#6689FF;}
</style>
<g>
	<g>
		<path class="st0" d="M302.9,42.7h-51.2c-7.1,0-12.8,5.7-12.8,12.8s5.7,12.8,12.8,12.8h51.2c7.1,0,12.8-5.7,12.8-12.8
			S310,42.7,302.9,42.7z"/>
	</g>
</g>
<g>
	<g>
		<path class="st0" d="M358.4,0H153.6c-28.2,0-51.2,23-51.2,51.2v409.6c0,28.2,23,51.2,51.2,51.2h204.8c28.2,0,51.2-23,51.2-51.2
			V51.2C409.6,23,386.6,0,358.4,0z M384,460.8c0,14.1-11.5,25.6-25.6,25.6H153.6c-14.1,0-25.6-11.5-25.6-25.6V51.2
			c0-14.1,11.5-25.6,25.6-25.6h204.8c14.1,0,25.6,11.5,25.6,25.6L384,460.8L384,460.8z"/>
	</g>
</g>
<g>
	<g>
		<circle class="st0" cx="256" cy="443.7" r="25.6"/>
	</g>
</g>
<g>
	<g>
		<circle class="st0" cx="209.1" cy="55.5" r="12.8"/>
	</g>
</g>
</svg>
